# xmcd CD database file
#
# Track frame offsets:
#	150
#	15012
#	32799
#	48702
#	68931
#	93939
#	138488
#	156831
#	176276
#	184083
#	203204
#
# Disc length: 3133 seconds
#
# Revision: 0
# Processed by: cddbd v1.5.2PL0 Copyright (c) Steve Scherf et al.
# Submitted via: CDex 1.51
#
DISCID=8c0c3b0b
DTITLE=Various Artist - Jazzprint 2001 Sampler
DYEAR=2001
DGENRE=Jazz
TTITLE0=Various Artists - P.L.A.
TTITLE1=John Etheridge - Venerable Bede
TTITLE2=Jim Mullen - Things Ain't What They Used To Be
TTITLE3=Jim Mullen - Power Of Three
TTITLE4=Harry Beckett Quintet - Conditions
TTITLE5=Howard Riley and Keith Tippett - Interchange
TTITLE6=Westbrook and Company - Riding Down To Platterback
TTITLE7=Howard Riley - Project
TTITLE8=Howard Riley - Introduction
TTITLE9=Annie Whitehead - Alien Style
TTITLE10=Zappatistas - Harry You're a Beast_Oh No_Theme From Lumpy Gravy
EXTD=YEAR: 2001
EXTT0=
EXTT1=
EXTT2=
EXTT3=
EXTT4=
EXTT5=
EXTT6=
EXTT7=
EXTT8=
EXTT9=
EXTT10=
PLAYORDER=
